<svg xmlns="http://www.w3.org/2000/svg" version="1.1" xmlns:xlink="http://www.w3.org/1999/xlink" xmlns:svgjs="http://svgjs.com/svgjs" width="512" height="512"><svg width="512" height="512" version="1.1" viewBox="0 0 135.47 135.47" xmlns="http://www.w3.org/2000/svg">
 <g transform="translate(-1.4704 -2.1932)">
  <g fill="none" stroke="#000" stroke-width=".13229" aria-label="Geheb.IT">
   <g transform="translate(.33897 -2.0232)" stroke="none">
    <path d="m96.054 65.603v54.17h-14.572c-1.1847-4.0126-2.4879-7.388-3.9096-10.126-6.0184 7.742-14.928 11.613-26.727 11.613-12.511 0-22.794-4.3431-30.85-13.029-8.0561-8.7334-12.084-20.535-12.084-35.406 0-14.445 3.8859-26.578 11.658-36.397 7.8192-9.8663 19.683-13.791 35.084-13.791 11.563 0 17.728 6.3396 17.728 6.3396l-11.015 17.294s-0.02367-3.1865-7.4637-3.1865c-9.7621 0-14.643 9.2527-14.643 27.758 0 11.188 1.5638 18.576 4.6915 22.164 3.1277 3.5406 6.9188 5.3108 11.373 5.3108 3.6016 0 6.6581-1.0858 9.1697-3.2573 2.559-2.1716 3.8622-5.1456 3.9096-8.9222h-16.065v-20.535z" fill="#0099eb"></path>
    <path d="m109.7 46.272v73.502h-28.22v-73.502h-20.117v-23.155h68.453v23.155z" fill="#00991b"></path>
    <rect x="61.365" y="23.117" width="20.117" height="23.155" fill="#ff1818"></rect>
   </g>
  </g>
 </g>
</svg><style>@media (prefers-color-scheme: light) { :root { filter: none; } }
</style></svg>