<?xml version="1.0" standalone="no"?>
<!DOCTYPE svg PUBLIC "-//W3C//DTD SVG 20010904//EN"
 "http://www.w3.org/TR/2001/REC-SVG-20010904/DTD/svg10.dtd">
<svg version="1.0" xmlns="http://www.w3.org/2000/svg"
 width="700.000000pt" height="700.000000pt" viewBox="0 0 700.000000 700.000000"
 preserveAspectRatio="xMidYMid meet">
<metadata>
Created by potrace 1.14, written by Peter Selinger 2001-2017
</metadata>
<g transform="translate(0.000000,700.000000) scale(0.100000,-0.100000)"
fill="#000000" stroke="none">
<path d="M2568 6045 c-2 -2 -52 -6 -113 -9 -60 -4 -135 -11 -165 -16 -30 -5
-77 -12 -105 -15 -27 -3 -77 -12 -111 -20 -34 -8 -73 -16 -85 -19 -108 -20
-306 -90 -444 -156 -377 -181 -672 -499 -901 -970 -126 -260 -220 -576 -259
-870 -3 -25 -8 -56 -10 -70 -27 -154 -26 -755 1 -893 2 -12 6 -44 10 -71 6
-58 49 -271 66 -330 6 -23 12 -45 13 -51 5 -23 46 -152 54 -170 5 -11 19 -47
32 -80 38 -102 138 -295 206 -397 364 -554 922 -887 1578 -945 155 -13 546 -6
575 12 3 1 26 6 52 9 26 4 53 9 60 11 7 2 24 6 38 9 165 28 388 122 554 234
91 61 243 199 309 280 l26 33 25 -48 c41 -83 77 -173 130 -327 l51 -148 330 0
c182 1 509 1 728 2 l397 0 0 1899 0 1898 518 0 517 0 3 596 c1 328 -1 597 -5
598 -47 5 -3521 3 -3528 -2 -5 -4 -48 0 -95 8 -69 12 -442 27 -452 18z m359
-1076 c87 -22 147 -58 169 -101 9 -18 20 -35 25 -38 4 -3 237 -5 518 -5 l511
0 0 -497 0 -498 -22 0 c-13 -1 -351 -2 -753 -3 l-729 -2 -1 -528 c0 -461 2
-527 15 -528 8 -1 195 -2 415 -3 l400 -1 0 -25 c0 -42 -24 -162 -41 -210 -73
-196 -292 -356 -524 -384 -79 -10 -200 -8 -239 3 -18 6 -36 10 -40 9 -12 -3
-95 24 -141 45 -120 55 -249 163 -320 267 -62 91 -137 312 -155 454 -2 17 -7
47 -10 66 -22 136 -30 283 -30 565 0 277 5 373 29 542 77 538 265 811 611 887
53 11 244 3 312 -15z"/>
</g>
</svg>
